<svg xmlns="http://www.w3.org/2000/svg" viewBox="0 0 503.93 443.23">
  <title>Felli_srl_vector_header</title>
        <path class="cls-1" d="M161.85,278.73C147.18,333,132.6,386.92,118,441H0Q59.84,220.23,119.54,0H470.93c-.54,1.42-1,2.68-1.49,3.89A433.05,433.05,0,0,1,449.58,42.6c-10.3,18.19-21.25,36-34.12,52.49-2.83,3.63-5.89,7.08-8.93,10.54a43.26,43.26,0,0,1-4.06,3.83,10.81,10.81,0,0,1-7.53,2.69q-92.1-.11-184.2-.05h-4.1L172.31,241.39l.56.35c.57-.68,1.17-1.33,1.71-2q17.46-22.77,34.89-45.55c6.5-8.48,13-16.94,19.46-25.48a5.18,5.18,0,0,1,4.67-2.26q68.41.09,136.83.05c.65,0,1.31.06,2.43.12-.82,1.14-1.38,2-2,2.82q-40.54,51.39-81.12,102.77c-1.34,1.69-2.71,3.35-4,5.09a3,3,0,0,1-3,1.48,17.69,17.69,0,0,0-2.06,0H161.85Z"/>
        <path class="cls-1" d="M230.67,339.43c-1.25,6.38-2.44,12.42-3.67,18.69H188.15c-1.41,7.26-2.8,14.34-4.25,21.8,3.23.29,6.22.11,9.19.14s6.08,0,9.12,0h18.54c-1.25,6.34-2.44,12.36-3.69,18.68H180.48c-1.58,8.34-3.12,16.39-4.72,24.81h41.16c-1.26,6.5-2.44,12.6-3.64,18.82H149.86c6.53-34.41,13-68.61,19.53-102.95Z"/>
        <path class="cls-1" d="M284.15,442.42h-61.8c1.39-8.69,3.19-17.15,4.78-25.64q2.43-13,4.88-26t4.91-25.68c1.62-8.54,3.25-17.08,4.88-25.69H264c-2.68,14.05-5.31,27.88-7.93,41.72s-5.23,27.69-7.91,41.92H287.8Z"/>
        <path class="cls-1" d="M352.07,442.39H290.23c6.53-34.41,13-68.61,19.53-103H332c-5.28,27.87-10.52,55.59-15.84,83.66h39.47C354.72,429.79,353.31,436,352.07,442.39Z"/>
        <path class="cls-1" d="M379.69,442.39H357.47c6.54-34.44,13-68.64,19.53-103h22.22C392.69,373.84,386.2,408.05,379.69,442.39Z"/>
        <path class="cls-1" d="M450.8,425.05c2.23,2.05,2.86,4.65,3.1,7.47.26,3.21.7,6.41,1.1,9.83h-8.15c-.25-1.87-.5-3.69-.72-5.51-.15-1.26-.17-2.54-.37-3.8-.71-4.43-2.19-5.49-7.2-4.93-.89,4.57-1.8,9.24-2.77,14.2a32.18,32.18,0,0,1-8,.07c2.33-12.19,4.62-24.18,6.93-36.32,5.57-1.05,11-1.47,16.42-.19,3.85.92,6.89,3,7.44,7.32a9.87,9.87,0,0,1-5.1,10.4C452.66,424.09,451.78,424.52,450.8,425.05Zm-11-3.33a34,34,0,0,0,4.44,0c2.55-.37,4.65-1.53,5.65-4.08a4,4,0,0,0-3.06-5.81,8.69,8.69,0,0,0-5.23.25C441,415.2,440.47,418.25,439.83,421.72Z"/>
        <path class="cls-1" d="M414.83,413.14a21,21,0,0,0-3.91-1,18.85,18.85,0,0,0-6.06.25c-3.08.91-3.5,3.77-1.06,5.86a26.68,26.68,0,0,0,3.19,2.11c1.16.72,2.38,1.36,3.51,2.14,7.17,5,4.77,14.21.11,17.37a19.93,19.93,0,0,1-5.52,2.6,20.71,20.71,0,0,1-15.83-2.06c.36-1,.73-2.09,1.15-3.15s.82-2,1.33-3.18a21.41,21.41,0,0,0,2.2.71,60.63,60.63,0,0,0,6.88,1.26,7.17,7.17,0,0,0,3.64-.9,3.42,3.42,0,0,0,.82-5.68,18.3,18.3,0,0,0-3.09-2.23c-1.39-.91-2.91-1.64-4.22-2.65a10.14,10.14,0,0,1-.14-16.41c4-3.22,8.72-3.83,13.64-3.23a52.34,52.34,0,0,1,5.87,1.43Z"/>
        <path class="cls-1" d="M493.41,435.44c-.49,2.6-.89,4.76-1.32,7H469.75c2.35-12.41,4.67-24.63,7-36.92h8.09c-1.87,10-3.71,19.74-5.63,29.92Z"/>
        <path class="cls-1" d="M420.68,443.12c-2.9.05-4.6-1.57-4.67-4.44a5.3,5.3,0,0,1,5.29-5.77,4.49,4.49,0,0,1,4.73,4.83A5.18,5.18,0,0,1,420.68,443.12Z"/>
        <path class="cls-1" d="M462,443.13a4.39,4.39,0,0,1-4.56-4.64,5.49,5.49,0,0,1,5.57-5.58c2.85.06,4.54,2,4.46,5A5.06,5.06,0,0,1,462,443.13Z"/>
        <path class="cls-1" d="M503.93,437.59a5.09,5.09,0,0,1-5.14,5.55,4.42,4.42,0,0,1-4.9-4.61,5.51,5.51,0,0,1,5.23-5.62C502,432.82,503.88,434.62,503.93,437.59Z"/>
</svg>
